<?xml version="1.0" encoding="utf-8"?>
<!-- Generator: Adobe Illustrator 24.2.0, SVG Export Plug-In . SVG Version: 6.00 Build 0)  -->
<svg version="1.1" id="Layer_1" xmlns="http://www.w3.org/2000/svg" xmlns:xlink="http://www.w3.org/1999/xlink" x="0px" y="0px"
	 viewBox="0 0 256 256" style="enable-background:new 0 0 256 256;" xml:space="preserve">
<style type="text/css">
	.st0{fill:none;}
	.st1{fill:none;stroke:#FF0000;stroke-miterlimit:10;}
</style>
<g id="Layer_2_5_">
	<g id="Layer_1-2_4_">
		<rect x="0" class="st0" width="256" height="256"/>
		<path d="M92.6,235l8.7-7.9c1-0.7,1.7-1.9,1.8-3.2c0-1.2-0.9-2.2-2.1-2.2c-0.1,0-0.2,0-0.3,0c-1.3,0-2.5,1.1-2.5,2.4
			c0,0,0,0.1,0,0.1h-5.5c0-3.8,2.7-7.3,8.1-7.3c5,0,8.2,2.6,8.2,6.7c0,3.2-1.7,5.1-4,7l-3.5,2.9h7.7v4.9H92.6V235z"/>
		<path d="M110.9,227.9c0-6.1,4.5-11,11.2-11c6.8,0,11.2,4.9,11.2,11s-4.5,11-11.2,11S110.9,234,110.9,227.9z M127.7,227.9
			c-0.1-3.1-2.7-5.5-5.7-5.4c-3.1,0.1-5.5,2.7-5.4,5.7c0.1,3,2.6,5.4,5.6,5.4c3,0.1,5.5-2.3,5.6-5.3
			C127.7,228.2,127.7,228,127.7,227.9z"/>
		<path d="M135,235l8.7-7.9c1-0.7,1.7-1.9,1.8-3.2c0-1.2-0.9-2.2-2.1-2.2c-0.1,0-0.2,0-0.4,0c-1.3,0-2.5,1.1-2.5,2.4
			c0,0,0,0.1,0,0.1h-5.5c0-3.8,2.7-7.3,8.1-7.3c5,0,8.2,2.6,8.2,6.7c0,3.2-1.7,5.1-4,7l-3.5,2.9h7.7v4.9H135V235z"/>
		<path d="M128,88.2c-31.8,0-57.6,25.8-57.6,57.6s25.8,57.6,57.6,57.6s57.6-25.8,57.6-57.6S159.8,88.2,128,88.2L128,88.2z
			 M128,196.9c-28.3,0-51.2-22.9-51.2-51.2S99.7,94.6,128,94.6s51.2,22.9,51.2,51.2S156.3,196.9,128,196.9L128,196.9z M115.2,149.7
			c0,3.9-3.1,7.1-7,7.1s-7.1-3.1-7.1-7c0-3.9,3.1-7.1,7-7.1c0,0,0,0,0,0C112,142.7,115.2,145.8,115.2,149.7L115.2,149.7z
			 M154.9,149.7c0,3.9-3.1,7-7,7s-7-3.1-7-7s3.1-7,7-7C151.8,142.7,154.9,145.8,154.9,149.7L154.9,149.7z M161.3,135l6.5-7.1h-14.4
			c-15.3-10.4-35.4-10.4-50.7,0H88.2l6.5,7.1c-8.1,7.4-8.7,19.9-1.3,28.1c7.4,8.1,19.9,8.7,28.1,1.3c0.1,0,0.1-0.1,0.2-0.1l6.4,6.9
			l6.4-6.9c8.1,7.4,20.7,6.9,28.1-1.2C169.9,155,169.3,142.4,161.3,135L161.3,135z M108.1,163.1c-7.4,0-13.5-6-13.5-13.4
			c0-7.4,6-13.5,13.4-13.5c7.4,0,13.5,6,13.5,13.4c0,0,0,0,0,0C121.6,157.1,115.5,163.1,108.1,163.1L108.1,163.1z M128,149.3
			c0-8.9-6.4-16.4-14.9-19.7c9.5-4,20.3-4,29.8,0C134.4,132.8,128,140.4,128,149.3z M147.9,163.1c-7.4,0-13.5-6-13.5-13.4
			c0-7.4,6-13.5,13.4-13.5c7.4,0,13.5,6,13.5,13.4c0,0,0,0,0,0C161.3,157.1,155.3,163.1,147.9,163.1z"/>
		<path d="M96,209.4c0,0-7-5.4-19.6-6.9c-7.6-0.8-15.3,1-21.8,5.2c6.8,2.5,13.9,4.1,21.1,4.7C88.6,213.8,96,209.4,96,209.4z"/>
		<path d="M76.4,198.4c0,0-6.3-6.5-18-10.9c-7.4-2.7-15.3-3.2-23-1.7c5.8,5,12.4,8.9,19.6,11.6C67.5,202.1,76.4,198.4,76.4,198.4z"
			/>
		<path d="M57.7,183.1c0,0-3.7-8.9-13.4-17.9c-6.2-5.5-13.8-9.2-21.9-10.5c3.7,7.2,8.7,13.7,14.8,19.2
			C47.5,183.4,57.7,183.1,57.7,183.1z"/>
		<path d="M54.1,165.9c0,0-1.2-9.6-8.2-20.8c-4.5-6.9-10.9-12.4-18.4-15.8c1.7,8,4.8,15.6,9.2,22.4
			C44.2,163.6,54.1,165.9,54.1,165.9z"/>
		<path d="M54.5,143c0,0-0.3-9.9-6.2-21.8c-3.7-7.4-9.5-13.5-16.6-17.7c1,8.2,3.4,16.2,7.1,23.6C45.1,139.8,54.5,143,54.5,143z"/>
		<path d="M82.4,191.9c-2.6-5.6-6.3-10.6-10.8-14.7c-5-4.5-11.2-7.6-17.8-8.8c3,5.9,7,11.3,11.9,15.8
			C74.1,192.1,82.4,191.9,82.4,191.9z"/>
		<path d="M102.3,202.8c-3.4-2.9-7.2-5.3-11.4-6.8c-4.6-1.7-9.6-2.2-14.4-1.5c3.7,3.1,8,5.5,12.5,7.2
			C96.8,204.8,102.3,202.8,102.3,202.8z"/>
		<path d="M121.6,206.7c-3.4-1.2-6.9-1.7-10.5-1.5c-3.9,0.2-7.7,1.4-11,3.6c3.7,1.2,7.5,1.7,11.4,1.5
			C118.2,210.1,121.6,206.7,121.6,206.7z"/>
		<path d="M73.7,174.2c-1.4-6-3.9-11.7-7.6-16.7c-3.9-5.5-9.3-9.7-15.6-12.2c1.7,6.4,4.6,12.5,8.4,17.9
			C65.6,172.7,73.7,174.2,73.7,174.2z"/>
		<path d="M66,150.4c0.9-6.2,0.5-12.5-1-18.5c-1.7-6.5-5.1-12.5-10-17.1c-0.7,6.7-0.2,13.5,1.4,20C59,146.1,66,150.4,66,150.4z"/>
		<path d="M160.1,209.4c0,0,7-5.4,19.6-6.9c7.6-0.8,15.3,1,21.8,5.2c-6.8,2.5-13.9,4.1-21.1,4.7
			C167.4,213.8,160.1,209.4,160.1,209.4z"/>
		<path d="M179.6,198.4c0,0,6.3-6.5,18-10.9c7.4-2.7,15.3-3.2,23-1.7c-5.8,5-12.4,8.9-19.6,11.6
			C188.5,202.1,179.6,198.4,179.6,198.4z"/>
		<path d="M198.3,183.1c0,0,3.7-8.9,13.4-17.9c6.2-5.5,13.8-9.2,21.9-10.5c-3.7,7.2-8.7,13.7-14.8,19.2
			C208.4,183.4,198.3,183.1,198.3,183.1z"/>
		<path d="M201.9,165.9c0,0,1.2-9.6,8.2-20.8c4.5-6.9,10.9-12.4,18.4-15.8c-1.7,8-4.8,15.6-9.2,22.4
			C211.8,163.6,201.9,165.9,201.9,165.9z"/>
		<path d="M201.5,143c0,0,0.3-9.9,6.2-21.8c3.7-7.4,9.5-13.5,16.6-17.7c-1,8.2-3.4,16.2-7.1,23.6C210.9,139.8,201.5,143,201.5,143z"
			/>
		<path d="M173.6,191.9c2.6-5.6,6.3-10.6,10.8-14.7c5-4.5,11.2-7.6,17.8-8.8c-3,5.9-7,11.3-11.9,15.8
			C181.9,192.1,173.6,191.9,173.6,191.9z"/>
		<path d="M153.7,202.8c3.4-2.9,7.2-5.3,11.4-6.8c4.6-1.7,9.6-2.2,14.4-1.5c-3.7,3.1-8,5.5-12.5,7.2
			C159.2,204.8,153.7,202.8,153.7,202.8z"/>
		<path d="M134.4,206.7c3.4-1.2,6.9-1.7,10.5-1.5c3.9,0.2,7.7,1.4,11,3.6c-3.7,1.2-7.5,1.7-11.4,1.5
			C137.8,210.1,134.4,206.7,134.4,206.7z"/>
		<path d="M182.3,174.2c1.4-6,3.9-11.7,7.6-16.7c3.9-5.5,9.3-9.7,15.6-12.2c-1.7,6.4-4.6,12.5-8.4,17.9
			C190.4,172.7,182.3,174.2,182.3,174.2z"/>
		<path d="M190,150.4c-0.9-6.2-0.5-12.5,1-18.5c1.7-6.5,5.1-12.5,10-17.1c0.7,6.7,0.2,13.5-1.4,20C197,146.1,190,150.4,190,150.4z"
			/>
		<circle cx="128" cy="209.5" r="3.2"/>
		<path d="M63.9,24.3h-7.5v22.1h-5.8V24.3h-7.5v-5.3h20.7V24.3z"/>
		<path d="M74.1,27v5.2h-2.9c-2.1,0-3.1,1-3.1,3.1v11h-5.5V27h5.1v3.6c0.2-2.1,1.9-3.6,4-3.6H74.1z"/>
		<path d="M74.8,36.7c0-5.7,4-10.2,9.6-10.2c2.2-0.1,4.4,0.7,6.1,2.2V27h5.1v19.3h-5.1V44c-1.4,2-3.8,3.1-6.2,2.9
			C78.8,46.9,74.8,42.3,74.8,36.7z M90.5,36.7c0-2.8-2.3-5.1-5.1-5.1c-2.8,0-5.1,2.3-5.1,5.1c0,0,0,0,0,0c0,2.8,2.3,5.1,5.1,5.1
			C88.2,41.8,90.5,39.5,90.5,36.7C90.5,36.7,90.5,36.7,90.5,36.7z"/>
		<path d="M97.7,27h5.9l2.9,10.2c0.3,1.2,0.6,2,0.8,2.9c0.2-0.9,0.4-1.7,0.7-2.9l2.9-10.2h5.9l-6.4,19.3h-6.3L97.7,27z"/>
		<path d="M136.5,38h-14.4c0.1,2.5,2.2,4.4,4.6,4.4c2,0.2,3.8-1.1,4.3-2.9h5.2c-0.9,4.7-4.4,7.5-9.6,7.5c-6.1,0-10.1-4.5-10.1-10.2
			c-0.2-5.5,4.2-10.1,9.6-10.2c0.1,0,0.2,0,0.4,0c6.1,0,9.8,3.7,9.8,10.6L136.5,38z M122.4,33.9h9c-0.6-2-2.5-3.4-4.6-3.2
			C124.8,30.7,123,32,122.4,33.9L122.4,33.9z"/>
		<path d="M139,18.9h5.5v27.4H139V18.9z"/>
		<path d="M147.8,18.9h5.5v27.4h-5.5V18.9z"/>
		<path d="M175.4,38H161c0.1,2.5,2.2,4.4,4.6,4.4c2,0.2,3.8-1.1,4.4-3h5.2c-0.9,4.7-4.4,7.5-9.6,7.5c-6.1,0-10.1-4.5-10.1-10.2
			c-0.2-5.5,4.2-10.1,9.6-10.2c0.1,0,0.2,0,0.4,0c6.1,0,9.8,3.7,9.8,10.6L175.4,38z M161.3,33.9h9c-0.6-2-2.5-3.4-4.6-3.2
			C163.7,30.7,161.9,32,161.3,33.9L161.3,33.9z"/>
		<path d="M189.4,27v5.2h-2.9c-2.1,0-3.1,1-3.1,3.1v11h-5.5V27h5.1v3.6c0.2-2.1,1.9-3.6,4-3.6H189.4z"/>
		<path d="M190.9,40h5.6c-0.1,1.1,0.7,2.1,1.9,2.2c0.1,0,0.2,0,0.3,0c1.3,0,2.1-0.6,2.1-1.6s-0.9-1.6-2.6-2.2l-2.5-0.7
			c-2.6-0.8-4.3-2.5-4.3-5.4c0-3.6,3.2-5.9,7.2-5.9c4.5,0,7,2.6,7,6.2h-5.2c0-1-0.8-1.8-1.9-1.8c0,0,0,0-0.1,0
			c-1.1,0-1.8,0.6-1.8,1.4c0,0.9,0.7,1.3,2.2,1.8l2.8,0.8c2.6,0.7,4.4,2.5,4.4,5.4c0,3.6-2.9,6.8-7.4,6.8
			C194.3,46.9,190.9,44.3,190.9,40z"/>
		<path d="M208.1,27.8h0.5c1.5,0.1,2.7-1.1,2.8-2.6c0,0,0-0.1,0-0.1c-0.2,0.1-0.5,0.2-0.8,0.1c-1.8,0-3.4-1.4-3.4-3.3
			c0-0.1,0-0.1,0-0.2c0-1.9,1.5-3.4,3.4-3.5c0,0,0,0,0,0c2.5,0,3.8,2.3,3.8,5.2c0,4.8-2.3,7-5.6,7h-0.8L208.1,27.8z"/>
		<path d="M68,67.8c0-8.4,6.3-14.2,13.8-14.2c7.4,0,12,4.1,13,10.6h-5.9C88.1,61,85.5,59,81.8,59c-4.4,0-8,3.6-8,8.8s3.6,8.8,8,8.8
			c3.6,0,6.3-1.9,7.1-5.2h6c-1.2,6.6-6.3,10.6-13.2,10.6C74.1,82.1,68,76.3,68,67.8z"/>
		<path d="M97.4,54.1h5.5v10.7c1.3-2.1,3.7-3.3,6.1-3.2c3.8,0,6.5,2.7,6.5,7.1v12.8H110V70.3c0.1-2-1.3-3.7-3.3-3.9
			c-2-0.1-3.7,1.3-3.9,3.3c0,0.2,0,0.4,0,0.5v11.2h-5.5V54.1z"/>
		<path d="M117.7,71.9c-0.1-5.5,4.3-10.1,9.8-10.2c0.2,0,0.4,0,0.7,0c6.3,0,10.5,4.5,10.5,10.2s-4.1,10.2-10.5,10.2
			c-5.5,0.2-10.2-4-10.4-9.5C117.7,72.3,117.7,72.1,117.7,71.9z M133.1,71.9c-0.1-2.8-2.4-4.9-5.1-4.9c-2.8,0.1-4.9,2.4-4.9,5.1
			c0.1,2.7,2.3,4.9,5,4.9c2.7,0.1,4.9-2,5-4.7C133.1,72.1,133.1,72,133.1,71.9z"/>
		<path d="M140,56.3c0-1.9,1.5-3.5,3.4-3.5s3.4,1.5,3.4,3.5c0,1.9-1.5,3.5-3.4,3.5l0,0C141.6,59.8,140,58.2,140,56.3
			C140,56.3,140,56.3,140,56.3z M140.7,62.2h5.5v19.3h-5.5V62.2z"/>
		<path d="M148.4,71.9c-0.2-5.5,4.1-10,9.6-10.2c0.2,0,0.4,0,0.6,0c6.1,0,9.4,3.2,10,7.8h-5.7c-0.6-1.6-1.9-2.7-4.3-2.7
			c-2.8,0.3-4.9,2.8-4.7,5.6c0.2,2.5,2.2,4.5,4.7,4.7c1.9,0.2,3.6-0.9,4.3-2.7h5.7c-0.9,4.7-4.1,7.8-10,7.8
			c-5.5,0.2-10-4.1-10.2-9.6C148.4,72.3,148.4,72.1,148.4,71.9z"/>
		<path d="M189.5,73.2h-14.4c0.1,2.5,2.1,4.4,4.6,4.4c2,0.2,3.8-1.1,4.4-2.9h5.2c-0.9,4.7-4.4,7.5-9.6,7.5
			c-6.1,0-10.1-4.5-10.1-10.2c-0.2-5.5,4.2-10.1,9.6-10.2c0.1,0,0.2,0,0.4,0c6.1,0,9.8,3.7,9.8,10.6L189.5,73.2z M175.4,69.1h9
			c-0.6-2-2.5-3.4-4.6-3.2C177.8,65.9,176,67.1,175.4,69.1z"/>
		<polygon points="187.8,55.7 191.1,55.7 191.1,56.4 189.8,56.4 189.8,60.1 189.1,60.1 189.1,56.4 187.8,56.4 		"/>
		<path d="M193.8,59l-1.2-3.3h-0.9v4.4h0.7v-2.5c0-0.2,0-0.4,0-0.7l1.1,3.1h0.6l1.1-3.1c0,0.2,0,0.4,0,0.7v2.4h0.7v-4.4H195
			L193.8,59z"/>
	</g>
</g>
<path d="M158.4,222.7h-5v-5.2h10.6v20.9h-5.6L158.4,222.7z"/>
<g>
	<rect x="-1556.9" y="-311" class="st1" width="115.2" height="267.9"/>
	<line class="st1" x1="-1535.6" y1="-106.5" x2="-1556.9" y2="-106.5"/>
	<line class="st1" x1="-1441.7" y1="-106.5" x2="-1463" y2="-106.5"/>
</g>
</svg>
